<mxfile host="www.draw.io" modified="2019-10-24T13:44:50.593Z" agent="Mozilla/5.0 (Windows NT 10.0; Win64; x64) AppleWebKit/537.36 (KHTML, like Gecko) Chrome/77.0.3865.120 Safari/537.36" etag="vPtbDY4MXRFJxciuPd7l" version="12.1.4" type="github" pages="1">
  <diagram id="Zbn6meLXj0EXHjqUIr-L" name="Page-1">
    <mxGraphModel dx="1038" dy="579" grid="1" gridSize="10" guides="1" tooltips="1" connect="1" arrows="1" fold="1" page="1" pageScale="1" pageWidth="827" pageHeight="1169" math="0" shadow="0">
      <root>
        <mxCell id="0"/>
        <mxCell id="1" parent="0"/>
        <mxCell id="YFIwxJV9pK0TtwvTE_1u-1" value="" style="html=1;shadow=0;dashed=0;shape=mxgraph.bootstrap.rrect;align=center;rSize=5;strokeColor=#3D8BCD;fillColor=#ffffff;fontColor=#f0f0f0;spacingTop=30;whiteSpace=wrap;" parent="1" vertex="1">
          <mxGeometry x="50" y="80" width="630" height="330" as="geometry"/>
        </mxCell>
        <mxCell id="YFIwxJV9pK0TtwvTE_1u-2" value="All training plans" style="html=1;shadow=0;dashed=0;shape=mxgraph.bootstrap.topButton;rSize=5;strokeColor=none;fillColor=#3D8BCD;fontColor=#ffffff;fontSize=14;fontStyle=1;align=left;spacingLeft=10;whiteSpace=wrap;resizeWidth=1;" parent="YFIwxJV9pK0TtwvTE_1u-1" vertex="1">
          <mxGeometry width="630.0000000000001" height="30" relative="1" as="geometry"/>
        </mxCell>
        <mxCell id="YFIwxJV9pK0TtwvTE_1u-110" value="" style="shape=partialRectangle;right=0;left=0;strokeColor=#dddddd;fillColor=#ffffff;whiteSpace=wrap;" parent="YFIwxJV9pK0TtwvTE_1u-1" vertex="1">
          <mxGeometry x="90.1" y="89.85714285714286" width="411.59999999999997" height="110" as="geometry"/>
        </mxCell>
        <mxCell id="YFIwxJV9pK0TtwvTE_1u-111" value="&lt;span style=&quot;font-size: 14px ; font-weight: 700 ; text-align: left ; white-space: normal&quot;&gt;Created&lt;/span&gt;" style="html=1;shadow=0;dashed=0;shape=mxgraph.bootstrap.horLines;strokeColor=inherit;fillColor=#000000;fillOpacity=3;resizeWidth=1;" parent="YFIwxJV9pK0TtwvTE_1u-110" vertex="1">
          <mxGeometry width="411.6" height="40" relative="1" as="geometry"/>
        </mxCell>
        <mxCell id="YFIwxJV9pK0TtwvTE_1u-112" value="Name" style="html=1;shadow=0;dashed=0;shape=mxgraph.bootstrap.rect;strokeColor=none;fillColor=none;fontSize=14;fontStyle=1;align=left;whiteSpace=wrap;resizeHeight=1;" parent="YFIwxJV9pK0TtwvTE_1u-111" vertex="1">
          <mxGeometry width="150" height="40" relative="1" as="geometry">
            <mxPoint x="10" as="offset"/>
          </mxGeometry>
        </mxCell>
        <mxCell id="YFIwxJV9pK0TtwvTE_1u-117" value="27.12.2019" style="strokeColor=inherit;fillColor=inherit;gradientColor=inherit;html=1;shadow=0;dashed=0;shape=mxgraph.bootstrap.horLines;resizeWidth=1;" parent="YFIwxJV9pK0TtwvTE_1u-110" vertex="1">
          <mxGeometry width="411.6" height="50" relative="1" as="geometry">
            <mxPoint y="40" as="offset"/>
          </mxGeometry>
        </mxCell>
        <mxCell id="YFIwxJV9pK0TtwvTE_1u-118" value="Home-Workout" style="html=1;shadow=0;dashed=0;shape=mxgraph.bootstrap.rect;strokeColor=none;fillColor=none;fontSize=14;align=left;whiteSpace=wrap;resizeHeight=1;" parent="YFIwxJV9pK0TtwvTE_1u-117" vertex="1">
          <mxGeometry width="150" height="50" relative="1" as="geometry">
            <mxPoint x="10" as="offset"/>
          </mxGeometry>
        </mxCell>
        <mxCell id="YFIwxJV9pK0TtwvTE_1u-161" value="Track" style="html=1;shadow=0;dashed=0;shape=mxgraph.bootstrap.rrect;rSize=5;fillColor=#58B957;align=center;strokeColor=#58B957;fontColor=#ffffff;fontSize=12;whiteSpace=wrap;" parent="YFIwxJV9pK0TtwvTE_1u-117" vertex="1">
          <mxGeometry x="294" y="14" width="36.96" height="22" as="geometry"/>
        </mxCell>
        <mxCell id="YFIwxJV9pK0TtwvTE_1u-159" value="Edit" style="html=1;shadow=0;dashed=0;shape=mxgraph.bootstrap.rrect;rSize=5;fillColor=#3D8BCD;align=center;strokeColor=#3D8BCD;fontColor=#ffffff;fontSize=12;whiteSpace=wrap;" parent="YFIwxJV9pK0TtwvTE_1u-117" vertex="1">
          <mxGeometry x="344.4" y="14" width="36.96" height="22" as="geometry"/>
        </mxCell>
        <mxCell id="YFIwxJV9pK0TtwvTE_1u-124" value="01.01.2020" style="strokeColor=inherit;fillColor=inherit;gradientColor=inherit;html=1;shadow=0;dashed=0;shape=mxgraph.bootstrap.horLines;resizeWidth=1;" parent="YFIwxJV9pK0TtwvTE_1u-110" vertex="1">
          <mxGeometry width="411.6" height="50" relative="1" as="geometry">
            <mxPoint y="90" as="offset"/>
          </mxGeometry>
        </mxCell>
        <mxCell id="YFIwxJV9pK0TtwvTE_1u-125" value="Gym-Workout" style="html=1;shadow=0;dashed=0;shape=mxgraph.bootstrap.rect;strokeColor=none;fillColor=none;fontSize=14;align=left;whiteSpace=wrap;resizeHeight=1;" parent="YFIwxJV9pK0TtwvTE_1u-124" vertex="1">
          <mxGeometry width="150" height="50" relative="1" as="geometry">
            <mxPoint x="10" as="offset"/>
          </mxGeometry>
        </mxCell>
        <mxCell id="YFIwxJV9pK0TtwvTE_1u-162" value="Track" style="html=1;shadow=0;dashed=0;shape=mxgraph.bootstrap.rrect;rSize=5;fillColor=#58B957;align=center;strokeColor=#58B957;fontColor=#ffffff;fontSize=12;whiteSpace=wrap;" parent="YFIwxJV9pK0TtwvTE_1u-124" vertex="1">
          <mxGeometry x="294.84" y="12" width="36.96" height="22" as="geometry"/>
        </mxCell>
        <mxCell id="YFIwxJV9pK0TtwvTE_1u-163" value="Edit" style="html=1;shadow=0;dashed=0;shape=mxgraph.bootstrap.rrect;rSize=5;fillColor=#3D8BCD;align=center;strokeColor=#3D8BCD;fontColor=#ffffff;fontSize=12;whiteSpace=wrap;" parent="YFIwxJV9pK0TtwvTE_1u-124" vertex="1">
          <mxGeometry x="345.24" y="12" width="36.96" height="22" as="geometry"/>
        </mxCell>
      </root>
    </mxGraphModel>
  </diagram>
</mxfile>
